<?xml version="1.0" standalone="no"?>
<!DOCTYPE svg PUBLIC "-//W3C//DTD SVG 20010904//EN"
 "http://www.w3.org/TR/2001/REC-SVG-20010904/DTD/svg10.dtd">
<svg version="1.0" xmlns="http://www.w3.org/2000/svg"
 width="150.000000pt" height="150.000000pt" viewBox="0 0 150.000000 150.000000"
 preserveAspectRatio="xMidYMid meet">
<metadata>
Created by potrace 1.11, written by Peter Selinger 2001-2013
</metadata>
<g transform="translate(0.000000,150.000000) scale(0.100000,-0.100000)"
fill="#000000" stroke="none">
<path d="M51 1231 c-12 -12 -28 -21 -36 -21 -12 0 -15 -14 -15 -63 0 -57 3
-66 29 -91 l29 -27 -19 -39 c-10 -21 -23 -42 -29 -45 -6 -4 -10 -171 -10 -476
l0 -469 571 0 c377 0 568 3 564 10 -3 6 1 10 10 10 9 0 13 -4 10 -10 -4 -7 55
-10 169 -10 l176 0 0 48 -1 47 -80 39 c-77 38 -80 38 -99 21 -16 -14 -23 -16
-32 -7 -9 9 -8 12 7 12 27 0 8 16 -40 34 -36 13 -38 16 -18 22 32 9 18 24 -23
24 -22 0 -33 -4 -29 -11 4 -6 -4 -9 -22 -7 -20 2 -27 -1 -25 -11 2 -11 -6 -12
-33 -8 -29 5 -34 3 -26 -7 9 -10 0 -11 -46 -2 -43 8 -58 7 -61 -2 -2 -7 -14 2
-26 20 -14 21 -31 33 -46 34 -14 1 -56 16 -93 33 -38 17 -75 31 -84 31 -8 0
-11 4 -8 10 3 5 2 10 -4 10 -5 0 -17 3 -27 7 -13 5 -16 3 -11 -10 8 -21 -7
-22 -27 -2 -17 18 -33 19 -38 4 -2 -7 -12 -7 -31 2 -42 19 -32 31 23 28 27 -2
52 0 55 3 8 8 -60 19 -131 23 -30 1 -57 5 -61 9 -3 3 -17 6 -30 6 -12 0 -23 4
-23 9 0 5 -8 8 -17 7 -10 0 -17 5 -16 11 2 7 -9 16 -23 19 -20 5 -24 12 -22
33 2 20 9 27 31 29 37 4 24 22 -16 23 l-32 0 33 16 c41 21 42 37 1 28 -22 -5
-29 -4 -25 4 4 7 -1 11 -12 11 -15 0 -25 19 -50 98 -31 96 -32 98 -17 160 14
58 14 65 -2 87 -10 14 -26 27 -35 30 -23 8 -12 33 15 37 20 3 22 9 21 70 0 61
1 66 15 54 16 -13 25 -13 84 -2 19 4 30 1 34 -9 3 -11 12 -13 27 -9 17 6 19 4
9 -7 -9 -11 -6 -15 15 -17 85 -8 130 -1 151 25 16 22 53 31 81 20 39 -14 61
-15 57 -3 -4 11 3 12 29 6 19 -5 40 -12 47 -18 17 -13 127 -33 140 -25 16 10
78 5 93 -8 8 -7 17 -9 20 -6 3 3 19 1 35 -3 16 -5 29 -5 29 -1 0 11 67 4 130
-13 66 -19 93 -21 70 -6 -11 7 -7 10 17 10 20 0 32 -5 30 -12 -3 -17 61 -29
67 -12 3 8 16 14 28 13 22 0 22 -1 3 -9 -17 -8 -15 -9 10 -7 27 2 30 6 33 39
l3 36 -53 6 c-29 3 -134 10 -233 16 -99 6 -241 15 -315 20 -74 5 -180 12 -235
15 -55 3 -165 10 -245 15 -209 14 -215 14 -199 -6 12 -15 11 -16 -6 -11 -11 3
-37 9 -58 13 -48 8 -43 30 7 27 68 -4 26 30 -53 43 -31 5 -43 2 -60 -15z m416
-77 c-3 -3 -12 -4 -19 -1 -8 3 -5 6 6 6 11 1 17 -2 13 -5z m-30 -30 c-3 -3
-12 -4 -19 -1 -8 3 -5 6 6 6 11 1 17 -2 13 -5z m823 -34 c0 -5 -5 -10 -11 -10
-5 0 -7 5 -4 10 3 6 8 10 11 10 2 0 4 -4 4 -10z m-810 -710 c12 -8 11 -10 -7
-10 -12 0 -25 5 -28 10 -8 13 15 13 35 0z m-52 -93 c2 -12 -1 -15 -12 -11 -19
7 -22 38 -3 32 6 -3 13 -12 15 -21z m129 17 c-3 -3 -12 -4 -19 -1 -8 3 -5 6 6
6 11 1 17 -2 13 -5z m213 -15 c19 -11 27 -18 17 -15 -10 3 -27 6 -37 6 -10 0
-20 7 -24 15 -7 20 2 18 44 -6z m-275 -19 c-4 -6 10 -10 34 -10 29 0 41 -4 41
-14 0 -9 15 -17 40 -21 46 -8 59 -21 30 -30 -13 -4 -31 2 -53 19 -19 14 -49
28 -68 32 -69 11 -80 15 -74 24 3 6 17 10 31 10 14 0 22 -4 19 -10z m48 3 c-7
-2 -19 -2 -25 0 -7 3 -2 5 12 5 14 0 19 -2 13 -5z m327 -23 c8 -5 11 -10 5
-10 -5 0 -17 5 -25 10 -8 5 -10 10 -5 10 6 0 17 -5 25 -10z m-30 -26 c0 -2 -7
-4 -15 -4 -8 0 -15 4 -15 10 0 5 7 7 15 4 8 -4 15 -8 15 -10z m-112 -51 c-16
-2 -40 -2 -55 0 -16 2 -3 4 27 4 30 0 43 -2 28 -4z m531 -39 c14 -12 -19 -1
-35 12 -18 14 -18 14 6 3 14 -6 27 -13 29 -15z m-122 -10 c-3 -3 -12 -4 -19
-1 -8 3 -5 6 6 6 11 1 17 -2 13 -5z m298 -14 c3 -5 2 -10 -4 -10 -5 0 -13 5
-16 10 -3 6 -2 10 4 10 5 0 13 -4 16 -10z m-532 -7 c-7 -2 -19 -2 -25 0 -7 3
-2 5 12 5 14 0 19 -2 13 -5z m157 -43 c0 -5 -9 -10 -19 -10 -11 0 -23 5 -26
10 -4 6 5 10 19 10 14 0 26 -4 26 -10z m-680 -30 c0 -5 -5 -10 -11 -10 -5 0
-7 5 -4 10 3 6 8 10 11 10 2 0 4 -4 4 -10z"/>
<path d="M252 828 c7 -19 241 -47 252 -30 10 16 -53 30 -162 37 -74 4 -93 3
-90 -7z"/>
<path d="M520 809 c0 -5 9 -9 20 -9 11 0 20 2 20 4 0 2 -9 6 -20 9 -11 3 -20
1 -20 -4z"/>
<path d="M492 585 c-11 -13 -9 -17 14 -25 15 -6 29 -8 32 -5 3 2 10 1 16 -3 6
-5 22 -5 36 -1 14 4 18 7 10 8 -35 3 -90 23 -85 32 10 14 -9 10 -23 -6z"/>
<path d="M368 543 c6 -2 18 -2 25 0 6 3 1 5 -13 5 -14 0 -19 -2 -12 -5z"/>
<path d="M481 529 c5 -10 17 -19 26 -19 14 0 14 -2 -3 -15 -18 -14 -18 -14 10
-15 21 0 27 4 22 15 -3 8 0 15 7 15 16 0 -23 26 -50 32 -20 5 -21 4 -12 -13z"/>
<path d="M591 529 c19 -12 69 -11 69 0 0 6 -19 9 -41 9 -27 0 -37 -3 -28 -9z"/>
<path d="M409 515 c-5 -19 -3 -31 6 -37 5 -4 -3 -8 -20 -8 -21 0 -26 3 -16 9
7 5 9 11 4 14 -6 4 -17 1 -26 -6 -14 -11 -13 -15 13 -37 26 -24 31 -25 67 -14
21 7 29 12 19 13 -18 1 -18 2 -2 20 17 18 17 19 -1 24 -16 4 -16 5 0 6 30 2
18 21 -13 21 -16 0 -31 -2 -31 -5z"/>
<path d="M1065 493 c3 -9 0 -20 -7 -25 -8 -4 4 -8 29 -8 34 0 41 3 37 15 -5
12 -2 14 17 7 13 -5 32 -7 41 -3 15 5 13 8 -7 18 -15 6 -25 7 -25 1 0 -5 -9
-7 -19 -3 -11 3 -22 1 -26 -5 -3 -5 -12 -10 -18 -10 -7 0 -6 4 3 10 8 5 13 10
10 11 -3 0 -13 2 -23 4 -14 3 -17 -1 -12 -12z"/>
<path d="M700 487 c14 -14 139 -41 148 -33 10 11 -49 35 -103 41 -53 6 -58 5
-45 -8z"/>
<path d="M1192 458 c3 -7 28 -20 56 -28 41 -13 49 -19 40 -28 -9 -9 -9 -12 3
-12 16 0 49 20 34 20 -5 0 -4 4 3 9 10 6 2 11 -25 16 -21 4 -43 11 -50 17 -7
5 -17 7 -22 4 -5 -4 -12 -2 -16 4 -9 14 -27 12 -23 -2z"/>
<path d="M477 440 c-2 -8 -2 -20 0 -26 5 -15 53 -5 60 12 3 8 14 14 26 14 11
0 17 3 13 8 -15 14 -95 8 -99 -8z"/>
<path d="M736 442 c-10 -16 -99 -41 -131 -36 -21 3 -14 -2 22 -17 30 -12 50
-26 46 -32 -4 -7 0 -8 13 -2 18 8 26 9 89 6 17 0 50 1 75 4 47 6 128 7 169 3
13 -2 26 3 29 10 3 10 -12 13 -69 12 -41 -1 -92 2 -115 5 -31 5 -44 3 -56 -9
-20 -19 -61 -21 -76 -3 -12 14 -4 32 15 38 8 2 9 9 4 18 -5 8 -11 9 -15 3z"/>
<path d="M900 432 c8 -5 42 -15 75 -21 33 -6 80 -15 104 -20 25 -5 51 -7 58
-4 14 5 18 23 6 24 -5 0 -44 5 -88 10 -142 18 -171 20 -155 11z"/>
<path d="M1130 432 c25 -15 70 -23 70 -12 0 5 -8 10 -17 10 -10 0 -29 3 -43 6
-18 4 -21 3 -10 -4z"/>
<path d="M608 423 c7 -3 16 -2 19 1 4 3 -2 6 -13 5 -11 0 -14 -3 -6 -6z"/>
<path d="M1390 409 c0 -4 20 -11 45 -15 52 -7 52 -14 -2 -23 -46 -8 -57 -31
-14 -31 17 0 31 -5 31 -11 0 -14 42 -7 47 8 3 8 -12 13 -44 16 l-48 3 48 2
c38 2 47 5 47 20 0 14 -13 20 -55 28 -30 5 -55 7 -55 3z"/>
<path d="M1206 391 c5 -5 18 -12 29 -15 11 -3 -5 -3 -35 -1 -54 4 -54 4 -20
-8 19 -7 40 -15 47 -20 6 -4 31 -11 55 -16 67 -15 162 -42 173 -51 15 -11 46
-8 42 4 -2 6 -14 10 -26 9 -11 -2 -21 1 -21 6 0 5 -13 12 -29 16 -15 3 -38 17
-50 30 -11 14 -31 26 -43 26 -30 2 -30 2 -50 -6 -12 -5 -18 -2 -18 8 0 16 -20
27 -48 27 -10 0 -12 -3 -6 -9z"/>
<path d="M975 316 c11 -8 24 -12 29 -8 5 3 1 9 -10 13 -31 12 -39 10 -19 -5z"/>
<path d="M1158 303 c6 -2 18 -2 25 0 6 3 1 5 -13 5 -14 0 -19 -2 -12 -5z"/>
<path d="M885 290 c3 -5 13 -10 21 -10 8 0 14 5 14 10 0 6 -9 10 -21 10 -11 0
-17 -4 -14 -10z"/>
<path d="M945 290 c3 -5 15 -10 26 -10 11 0 17 5 14 10 -3 6 -15 10 -26 10
-11 0 -17 -4 -14 -10z"/>
<path d="M1243 293 c9 -2 23 -2 30 0 6 3 -1 5 -18 5 -16 0 -22 -2 -12 -5z"/>
<path d="M1290 290 c0 -6 7 -10 15 -10 8 0 15 2 15 4 0 2 -7 6 -15 10 -8 3
-15 1 -15 -4z"/>
<path d="M1117 273 c-12 -12 -7 -23 11 -23 13 0 14 2 3 9 -11 7 -11 9 0 14 8
3 9 6 3 6 -6 1 -14 -2 -17 -6z"/>
<path d="M1425 250 c3 -5 1 -10 -4 -10 -6 0 -11 -7 -11 -15 0 -19 17 -19 27
-1 5 8 19 19 33 25 23 9 22 10 -13 10 -23 1 -36 -3 -32 -9z"/>
<path d="M1003 239 c14 -8 22 -8 30 0 8 8 3 11 -18 11 -26 -1 -28 -2 -12 -11z"/>
</g>
</svg>
